<?xml version="1.0" encoding="UTF-8" standalone="no"?>
<!-- Created with Inkscape (http://www.inkscape.org/) -->
<svg id="svg5816" xmlns:rdf="http://www.w3.org/1999/02/22-rdf-syntax-ns#" xmlns="http://www.w3.org/2000/svg" sodipodi:docname="internet-group-chat.svg" xmlns:sodipodi="http://inkscape.sourceforge.net/DTD/sodipodi-0.dtd" height="48px" sodipodi:version="0.32" width="48px" xmlns:cc="http://web.resource.org/cc/" xmlns:xlink="http://www.w3.org/1999/xlink" sodipodi:docbase="/home/tigert/cvs/freedesktop.org/tango-icon-theme/scalable/apps" xmlns:dc="http://purl.org/dc/elements/1.1/">
 <defs id="defs3">
  <linearGradient id="linearGradient29433">
   <stop id="stop29435" offset="0"/>
   <stop id="stop29437" stop-opacity="0" offset="1"/>
  </linearGradient>
  <linearGradient id="linearGradient29418">
   <stop id="stop29420" stop-color="#f5f5f5" offset="0"/>
   <stop id="stop29422" stop-color="#e9e9e9" offset="1"/>
  </linearGradient>
  <linearGradient id="linearGradient29429" y2="26.258" xlink:href="#linearGradient29418" gradientUnits="userSpaceOnUse" x2="39.037" gradientTransform="matrix(1.0076 0 0 .98765 -3.0719 .27461)" y1="10.916" x1="26.012"/>
  <radialGradient id="radialGradient29439" xlink:href="#linearGradient29433" gradientUnits="userSpaceOnUse" cy="27.645" cx="29.496" gradientTransform="matrix(1 0 0 .34649 -5.1771e-17 18.067)" r="11.516"/>
  <linearGradient id="linearGradient29443" y2="24.144" xlink:href="#linearGradient29418" gradientUnits="userSpaceOnUse" x2="27.273" gradientTransform="matrix(-.97723 0 0 .99588 50.603 9.1156)" y1="10.957" x1="35.004"/>
  <radialGradient id="radialGradient29455" xlink:href="#linearGradient29433" gradientUnits="userSpaceOnUse" cy="27.645" cx="29.496" gradientTransform="matrix(1 0 0 .34649 -5.1928e-16 18.067)" r="11.516"/>
 </defs>
 <sodipodi:namedview id="base" bordercolor="#666666" pagecolor="#ffffff" showgrid="false" borderopacity="0.13333333"/>
 <metadata id="metadata4">
  <rdf:RDF>
   <cc:Work rdf:about="">
    <dc:format>image/svg+xml</dc:format>
    <dc:type rdf:resource="http://purl.org/dc/dcmitype/StillImage"/>
    <dc:title>Group Chat</dc:title>
    <dc:creator>
     <cc:Agent>
      <dc:title>Jakub Steiner</dc:title>
     </cc:Agent>
    </dc:creator>
    <dc:contributor>
     <cc:Agent>
      <dc:title/>
     </cc:Agent>
    </dc:contributor>
    <cc:license rdf:resource="http://creativecommons.org/licenses/by-sa/2.0/"/>
    <dc:subject>
     <rdf:Bag>
      <rdf:li>group</rdf:li>
      <rdf:li>chat</rdf:li>
      <rdf:li>IRC</rdf:li>
      <rdf:li>internet</rdf:li>
      <rdf:li>network</rdf:li>
     </rdf:Bag>
    </dc:subject>
   </cc:Work>
   <cc:License rdf:about="http://creativecommons.org/licenses/by-sa/2.0/">
    <cc:permits rdf:resource="http://web.resource.org/cc/Reproduction"/>
    <cc:permits rdf:resource="http://web.resource.org/cc/Distribution"/>
    <cc:requires rdf:resource="http://web.resource.org/cc/Notice"/>
    <cc:requires rdf:resource="http://web.resource.org/cc/Attribution"/>
    <cc:permits rdf:resource="http://web.resource.org/cc/DerivativeWorks"/>
    <cc:requires rdf:resource="http://web.resource.org/cc/ShareAlike"/>
   </cc:License>
  </rdf:RDF>
 </metadata>
 <g id="layer1">
  <path id="path29431" sodipodi:rx="11.515739" sodipodi:ry="3.9901025" style="color:#000000" sodipodi:type="arc" d="m41.012 27.645a11.516 3.9901 0 1 1 -23.031 0 11.516 3.9901 0 1 1 23.031 0z" opacity=".12025" transform="matrix(1.3728 0 0 1.0924 -10.337 .23562)" display="block" sodipodi:cy="27.645426" sodipodi:cx="29.496454" fill="url(#radialGradient29439)"/>
  <path id="rect29408" style="color:#000000" d="m18.402 6.5709c-1.072 0-1.921 0.8634-1.921 1.9135v15.062c0 1.05 0.849 1.883 1.921 1.883h14.137c0.856 1.103 2.523 2.893 6.517 4.382-1.778-2.049-1.774-3.44-1.574-4.382h2.897c1.071 0 1.952-0.833 1.952-1.883v-15.062c0-1.0497-0.881-1.9131-1.952-1.9131h-21.977z" display="block" stroke="#787878" fill="url(#linearGradient29429)"/>
  <path id="path29445" style="color:#000000" d="m18.813 7.5755c-0.918 0-1.292 0.437-1.292 1.337v13.868c0 0.9 0.727 1.614 1.646 1.614h13.884c0.733 0.946 1.303 1.975 3.515 3.1-0.414-0.898-0.065-2.152 0.216-3.1h3.493c0.918 0 1.016-0.36 1.016-1.26v-14.222c0-0.8995-0.25-1.286-1.168-1.286l-21.31-0.0505z" sodipodi:nodetypes="cccccccccccc" display="block" stroke="#fff" fill="none"/>
  <path id="path29453" sodipodi:rx="11.515739" sodipodi:ry="3.9901025" style="color:#000000" sodipodi:type="arc" d="m41.012 27.645a11.516 3.9901 0 1 1 -23.031 0 11.516 3.9901 0 1 1 23.031 0z" opacity=".12025" transform="matrix(1.3728 0 0 1.0924 -21.087 6.7356)" display="block" sodipodi:cy="27.645426" sodipodi:cx="29.496454" fill="url(#radialGradient29455)"/>
  <path id="path29441" style="color:#000000" d="m29.776 15.464c1.039 0 1.862 0.871 1.862 1.93v15.187c0 1.059-0.823 1.898-1.862 1.898h-13.712c-0.831 1.113-2.447 2.918-6.3216 4.42 1.7246-2.066 1.7216-3.469 1.5266-4.42h-2.8093c-1.039 0-1.8933-0.839-1.8933-1.898v-15.187c0-1.059 0.8543-1.93 1.8933-1.93h21.316z" display="block" stroke="#787878" fill="url(#linearGradient29443)"/>
  <path id="path29449" style="color:#000000" d="m29.389 16.453c0.943 0 1.235 0.461 1.235 1.422v14.204c0 0.96-0.242 1.368-1.184 1.368h-13.902c-0.753 1.01-2.068 2.596-3.511 3.251 0.403-1.167 0.248-2.136 0.173-3.251h-3.4072c-0.9425 0-1.2123-0.408-1.2123-1.368v-14.078c0-0.96 0.2698-1.548 1.2123-1.548h20.596z" sodipodi:nodetypes="cccccccccccc" display="block" stroke="#fff" fill="none"/>
 </g>
</svg>