<?xml version="1.0" encoding="UTF-8" standalone="no"?>
<!-- Created with Inkscape (http://www.inkscape.org/) -->
<svg xmlns:dc="http://purl.org/dc/elements/1.1/" xmlns:cc="http://creativecommons.org/ns#" xmlns:rdf="http://www.w3.org/1999/02/22-rdf-syntax-ns#" xmlns:svg="http://www.w3.org/2000/svg" xmlns="http://www.w3.org/2000/svg" xmlns:sodipodi="http://sodipodi.sourceforge.net/DTD/sodipodi-0.dtd" xmlns:inkscape="http://www.inkscape.org/namespaces/inkscape" id="svg2" version="1.1" inkscape:version="0.48.3.1 r9886" width="16" height="16" sodipodi:docname="QR icon.svg">
  <metadata id="metadata8">
    <rdf:RDF>
      <cc:Work rdf:about="">
        <dc:format>image/svg+xml</dc:format>
        <dc:type rdf:resource="http://purl.org/dc/dcmitype/StillImage"/>
      </cc:Work>
    </rdf:RDF>
  </metadata>
  <defs id="defs6"/>
  <sodipodi:namedview pagecolor="#ffffff" bordercolor="#666666" borderopacity="1" objecttolerance="10" gridtolerance="10" guidetolerance="10" inkscape:pageopacity="0" inkscape:pageshadow="2" inkscape:window-width="1485" inkscape:window-height="876" id="namedview4" showgrid="false" inkscape:snap-center="true" inkscape:zoom="1" inkscape:cx="10.042904" inkscape:cy="11.03644" inkscape:window-x="115" inkscape:window-y="0" inkscape:window-maximized="1" inkscape:current-layer="svg2">
    <inkscape:grid type="xygrid" id="grid3003"/>
  </sodipodi:namedview>
  <path style="font-size:medium;font-style:normal;font-variant:normal;font-weight:normal;font-stretch:normal;text-indent:0;text-align:start;text-decoration:none;line-height:normal;letter-spacing:normal;word-spacing:normal;text-transform:none;direction:ltr;block-progression:tb;writing-mode:lr-tb;text-anchor:start;baseline-shift:baseline;color:#000000;fill:#2e3436;fill-opacity:1;stroke:none;stroke-width:1;marker:none;visibility:visible;display:inline;overflow:visible;enable-background:accumulate;font-family:Sans;-inkscape-font-specification:Sans" d="M 1,1 1,1.5 1,5.5 1,6 1.5,6 5.5,6 6,6 6,5.5 6,1.5 6,1 5.5,1 1.5,1 1,1 z M 2,2 5,2 5,5 2,5 2,2 z" id="path3005" inkscape:connector-curvature="0"/>
  <rect style="fill:#2e3436;stroke:none" id="rect3007" width="1" height="1" x="3" y="3"/>
  <path style="font-size:medium;font-style:normal;font-variant:normal;font-weight:normal;font-stretch:normal;text-indent:0;text-align:start;text-decoration:none;line-height:normal;letter-spacing:normal;word-spacing:normal;text-transform:none;direction:ltr;block-progression:tb;writing-mode:lr-tb;text-anchor:start;baseline-shift:baseline;color:#000000;fill:#2e3436;fill-opacity:1;stroke:none;stroke-width:1;marker:none;visibility:visible;display:inline;overflow:visible;enable-background:accumulate;font-family:Sans;-inkscape-font-specification:Sans" d="m 10,1 0,0.5 0,4 0,0.5 0.5,0 4,0 0.5,0 0,-0.5 0,-4 0,-0.5 -0.5,0 -4,0 -0.5,0 z m 1,1 3,0 0,3 -3,0 0,-3 z" id="path3009" inkscape:connector-curvature="0"/>
  <rect y="3" x="12" height="1" width="1" id="rect3011" style="fill:#2e3436;stroke:none"/>
  <path style="font-size:medium;font-style:normal;font-variant:normal;font-weight:normal;font-stretch:normal;text-indent:0;text-align:start;text-decoration:none;line-height:normal;letter-spacing:normal;word-spacing:normal;text-transform:none;direction:ltr;block-progression:tb;writing-mode:lr-tb;text-anchor:start;baseline-shift:baseline;color:#000000;fill:#2e3436;fill-opacity:1;stroke:none;stroke-width:1;marker:none;visibility:visible;display:inline;overflow:visible;enable-background:accumulate;font-family:Sans;-inkscape-font-specification:Sans" d="m 1,10 0,0.5 0,4 0,0.5 0.5,0 4,0 0.5,0 0,-0.5 0,-4 0,-0.5 -0.5,0 -4,0 -0.5,0 z m 1,1 3,0 0,3 -3,0 0,-3 z" id="path3013" inkscape:connector-curvature="0"/>
  <rect style="fill:#2e3436;stroke:none" id="rect3015" width="1" height="1" x="3" y="12"/>
  <path style="font-size:medium;font-style:normal;font-variant:normal;font-weight:normal;font-stretch:normal;text-indent:0;text-align:start;text-decoration:none;line-height:normal;letter-spacing:normal;word-spacing:normal;text-transform:none;direction:ltr;block-progression:tb;writing-mode:lr-tb;text-anchor:start;baseline-shift:baseline;color:#000000;fill:#2e3436;fill-opacity:1;stroke:none;stroke-width:1;marker:none;visibility:visible;display:inline;overflow:visible;enable-background:accumulate;font-family:Sans;-inkscape-font-specification:Sans" d="m 7,1 0,0.5 0,1 0,1 L 7,4 7.5,4 8,4 8,5 7.5,5 7,5 7,5.5 7,6.5 7,7 8,7 8,6.5 8,6 8.5,6 9,6 9,5.5 9,3.5 9,3 8.5,3 8,3 8,2.5 8,2 8.5,2 9,2 9,1 8.5,1 7.5,1 7,1 z" id="path3017" inkscape:connector-curvature="0"/>
  <rect y="7" x="1" height="1" width="1" id="rect3787" style="fill:#2e3436;stroke:none"/>
  <rect style="fill:#2e3436;stroke:none" id="rect3789" width="1" height="1" x="2" y="8"/>
  <path style="font-size:medium;font-style:normal;font-variant:normal;font-weight:normal;font-stretch:normal;text-indent:0;text-align:start;text-decoration:none;line-height:normal;letter-spacing:normal;word-spacing:normal;text-transform:none;direction:ltr;block-progression:tb;writing-mode:lr-tb;text-anchor:start;baseline-shift:baseline;color:#000000;fill:#2e3436;fill-opacity:1;stroke:none;stroke-width:1;marker:none;visibility:visible;display:inline;overflow:visible;enable-background:accumulate;font-family:Sans;-inkscape-font-specification:Sans" d="M 3,7 3,8 3.5,8 4,8 4,8.5 4,9 4.5,9 6.5,9 7,9 7,9.5 7,10 8,10 8,9.5 8,8.5 8,8 7.5,8 6.5,8 5,8 5,7.5 5,7 4.5,7 3.5,7 3,7 z" id="path3791" inkscape:connector-curvature="0"/>
  <rect y="11" x="7" height="1" width="1" id="rect3793" style="fill:#2e3436;stroke:none"/>
  <rect style="fill:#2e3436;stroke:none" id="rect3795" width="1" height="1" x="8" y="10"/>
  <rect y="10" x="8" height="1" width="1" id="rect3797" style="fill:#2e3436;stroke:none"/>
  <rect style="fill:#2e3436;stroke:none" id="rect3799" width="1" height="1" x="9" y="9"/>
  <path style="font-size:medium;font-style:normal;font-variant:normal;font-weight:normal;font-stretch:normal;text-indent:0;text-align:start;text-decoration:none;line-height:normal;letter-spacing:normal;word-spacing:normal;text-transform:none;direction:ltr;block-progression:tb;writing-mode:lr-tb;text-anchor:start;baseline-shift:baseline;color:#000000;fill:#2e3436;fill-opacity:1;stroke:none;stroke-width:1;marker:none;visibility:visible;display:inline;overflow:visible;enable-background:accumulate;font-family:Sans;-inkscape-font-specification:Sans" d="m 8,14 0,1 0.5,0 2,0 0.5,0 0,-1 -0.5,0 -2,0 -0.5,0 z" id="path3898" inkscape:connector-curvature="0"/>
  <path style="font-size:medium;font-style:normal;font-variant:normal;font-weight:normal;font-stretch:normal;text-indent:0;text-align:start;text-decoration:none;line-height:normal;letter-spacing:normal;word-spacing:normal;text-transform:none;direction:ltr;block-progression:tb;writing-mode:lr-tb;text-anchor:start;baseline-shift:baseline;color:#000000;fill:#2e3436;fill-opacity:1;stroke:none;stroke-width:1;marker:none;visibility:visible;display:inline;overflow:visible;enable-background:accumulate;font-family:Sans;-inkscape-font-specification:Sans" d="m 13,8 0,0.5 0,2 0,0.5 1,0 0,-0.5 0,-2 0,-0.5 -1,0 z" id="path3900" inkscape:connector-curvature="0"/>
  <path style="font-size:medium;font-style:normal;font-variant:normal;font-weight:normal;font-stretch:normal;text-indent:0;text-align:start;text-decoration:none;line-height:normal;letter-spacing:normal;word-spacing:normal;text-transform:none;direction:ltr;block-progression:tb;writing-mode:lr-tb;text-anchor:start;baseline-shift:baseline;color:#000000;fill:#2e3436;fill-opacity:1;stroke:none;stroke-width:1;marker:none;visibility:visible;display:inline;overflow:visible;enable-background:accumulate;font-family:Sans;-inkscape-font-specification:Sans" d="m 10,7 0,1 0.5,0 0.5,0 0,0.5 0,0.5 1,0 0,-0.5 0,-1 0,-0.5 -0.5,0 -1,0 -0.5,0 z m 0,3 0,1 2,0 0,1.5 0,0.5 0.5,0 1,0 0.5,0 0,-1 -0.5,0 -0.5,0 0,-1.5 0,-0.5 -0.5,0 -0.5,0 -0.5,0 -1.5,0 z" id="path3902" inkscape:connector-curvature="0"/>
  <rect style="fill:#2e3436;stroke:none" id="rect3799-9" width="1" height="1" x="8" y="7"/>
  <rect style="fill:#2e3436;stroke:none" id="rect3799-1" width="1" height="1" x="9" y="11"/>
  <rect style="fill:#2e3436;stroke:none" id="rect3799-1-8" width="1" height="1" x="10" y="12"/>
  <rect style="fill:#2e3436;stroke:none" id="rect3799-1-5" width="1" height="1" x="10" y="12"/>
  <rect y="14" x="13" height="1" width="1" id="rect3954" style="fill:#2e3436;stroke:none"/>
  <path style="font-size:medium;font-style:normal;font-variant:normal;font-weight:normal;font-stretch:normal;text-indent:0;text-align:start;text-decoration:none;line-height:normal;letter-spacing:normal;word-spacing:normal;text-transform:none;direction:ltr;block-progression:tb;writing-mode:lr-tb;text-anchor:start;baseline-shift:baseline;color:#000000;fill:#2e3436;fill-opacity:1;stroke:none;stroke-width:1;marker:none;visibility:visible;display:inline;overflow:visible;enable-background:accumulate;font-family:Sans;-inkscape-font-specification:Sans" d="m 11,13 0,0.5 0,1 0,0.5 1,0 0,-0.5 0,-1 0,-0.5 -1,0 z" id="path3956" inkscape:connector-curvature="0"/>
  <path style="font-size:medium;font-style:normal;font-variant:normal;font-weight:normal;font-stretch:normal;text-indent:0;text-align:start;text-decoration:none;line-height:normal;letter-spacing:normal;word-spacing:normal;text-transform:none;direction:ltr;block-progression:tb;writing-mode:lr-tb;text-anchor:start;baseline-shift:baseline;color:#000000;fill:#2e3436;fill-opacity:1;stroke:none;stroke-width:1;marker:none;visibility:visible;display:inline;overflow:visible;enable-background:accumulate;font-family:Sans;-inkscape-font-specification:Sans" d="m 7,12 0,0.5 0,1 0,0.5 1,0 0,-0.5 0,-0.5 0.5,0 0.5,0 0,-1 -0.5,0 -1,0 -0.5,0 z" id="path3958" inkscape:connector-curvature="0"/>
  <path style="font-size:medium;font-style:normal;font-variant:normal;font-weight:normal;font-stretch:normal;text-indent:0;text-align:start;text-decoration:none;line-height:normal;letter-spacing:normal;word-spacing:normal;text-transform:none;direction:ltr;block-progression:tb;writing-mode:lr-tb;text-anchor:start;baseline-shift:baseline;color:#000000;fill:#2e3436;fill-opacity:1;stroke:none;stroke-width:1;marker:none;visibility:visible;display:inline;overflow:visible;enable-background:accumulate;font-family:Sans;-inkscape-font-specification:Sans" d="m 14,7 0,0.5 0,1 0,0.5 1,0 0,-0.5 0,-1 0,-0.5 -1,0 z" id="path3962" inkscape:connector-curvature="0"/>
  <rect style="fill:#2e3436;stroke:none" id="rect3964" width="1" height="1" x="14" y="11"/>
  <rect y="13" x="14" height="1" width="1" id="rect3966" style="fill:#2e3436;stroke:none"/>
</svg>